<svg width="3841" height="747" viewBox="0 0 3841 747" fill="none" xmlns="http://www.w3.org/2000/svg">
<path fill-rule="evenodd" clip-rule="evenodd" d="M0 632.54V747H3840.71V632.54H3801.98V379.524H3769.2V286.149L3718.55 234.943H3664.92L3614.26 286.149V379.524H3575.53V632.54H3540.61V265.064H3445.26V213.859H3430.37V165.665H3394.61V111.447H3346.94V599.407H3293.3V361.451H3189.02V313.258H3171.14V361.451H3138.36V599.407H3081.75V250.004H2938.73V632.54H2894.04V487.96H2771.87V632.54H2706.32V361.451L2685.46 340.367V286.149L2649.71 250.004V165.665L2616.93 132.532L2584.16 165.665V250.004L2548.4 286.149V340.367L2527.54 361.451V632.54H2503.71V361.451H2479.87V286.149H2461.99V361.451H2330.89V632.54H2289.18V234.944H2250.44V186.75H2223.62V147.593H2187.87V0H2161.05V147.593H2131.26V186.75H2110.4V234.944H2077.62V632.54H2035.88H2013.71V555.688H2027.57L2013.71 521.958H1934.21L1920.36 555.688H1932.4V632.54H1882V500.727H1901.65L1870.66 431.936H1795.82L1766.34 500.727H1785.99V567.628V632.54H1740.32V599.372C1754.02 596.592 1764.33 584.484 1764.33 569.967C1764.33 553.396 1750.89 539.962 1734.32 539.962C1717.75 539.962 1704.32 553.396 1704.32 569.967C1704.32 585.526 1716.16 598.319 1731.32 599.825V632.54H1692.31V551.046C1707.58 548.862 1719.32 535.732 1719.32 519.859C1719.32 502.459 1705.21 488.354 1687.81 488.354C1670.41 488.354 1656.31 502.459 1656.31 519.859C1656.31 535.732 1668.04 548.862 1683.31 551.046V632.54H1635.64V495.676H1649.5L1635.64 461.947H1556.14L1542.29 495.676H1554.33V632.54H1524.49V538.224H1502.57V423.321H1512.39V405.934H1502.57L1468.55 344.925L1433.02 405.934H1420.92V423.321H1433.02V538.224H1409.59V632.54H1365.74V500.427H1388.42L1357.43 450.535V423.321H1228.16V450.535L1196.41 500.427H1218.33V632.54H1189.67H1138.96V538.224H1159.37L1080.75 431.636L1005.16 538.224H1024.81V632.54H942.175V599.372C955.871 596.592 966.179 584.484 966.179 569.967C966.179 553.396 952.745 539.962 936.173 539.962C919.602 539.962 906.168 553.396 906.168 569.967C906.168 585.526 918.01 598.319 933.173 599.825V632.54H876.162V569.508C894.856 566.622 909.169 550.462 909.169 530.96C909.169 509.417 891.704 491.953 870.161 491.953C848.618 491.953 831.154 509.417 831.154 530.96C831.154 551.493 847.02 568.321 867.161 569.853V632.54H813.151V602.523C823.423 600.438 831.154 591.356 831.154 580.469C831.154 568.04 821.079 557.965 808.65 557.965C796.221 557.965 786.146 568.04 786.146 580.469C786.146 591.356 793.877 600.438 804.149 602.523V632.54H756.019V432.275L718.249 390.737C710.598 382.323 697.319 382.47 689.855 391.051L654 432.275V632.54H606.142V563.161H615.057V550.681H579.398V541.766H590.096L509.864 459.751L479.554 488.278L449.244 461.534L369.012 541.766H379.709V632.54H351.008V601.473H358.51L330.004 566.967L306 601.473H313.501V632.54H186.456C182.166 624.224 177.842 613.923 177.651 606.665C177.363 595.728 177.531 588.677 177.651 586.518C178.131 588.437 183.226 591.332 186.87 590.476C192.994 589.037 193.71 588.317 194.79 582.921C195.573 583.276 196.145 584.086 196.825 585.048C198.438 587.331 200.659 590.476 207.749 590.476C216.638 590.476 217.816 587.123 218.622 584.828C218.926 583.964 219.177 583.249 219.768 582.921C221.088 586.039 226.103 592.274 235.607 592.274C247.486 592.274 267.644 583.281 270.524 568.531C272.767 557.044 269.03 555.375 265.973 554.01C265.105 553.622 264.291 553.258 263.685 552.701C264.287 552.537 264.944 552.466 265.626 552.392C269.427 551.981 273.984 551.487 273.984 534.354C273.984 518.524 266.684 516.965 263.685 516.726C264.896 516.23 265.946 515.845 266.866 515.507C271.959 513.638 273.057 513.234 275.424 503.774C277.584 495.14 273.164 484.707 270.524 484.707C270.884 480.15 270.812 470.173 267.644 466.72C264.476 463.266 254.665 460.604 251.666 461.323C251.157 460.138 250.85 458.825 250.544 457.521C249.768 454.208 249.005 450.954 245 450C240.013 448.813 238.456 446.925 237.155 445.348C235.716 443.603 234.59 442.238 229.487 442.616C228.647 439.258 226.247 432.543 223.368 432.543C220.488 432.543 217.368 434.941 216.168 436.14C214.728 433.022 210.84 426.571 206.809 425.707C202.777 424.844 198.649 425.348 197.089 425.707C194.69 421.63 188.666 413.404 183.77 413.116C178.875 412.828 175.731 415.154 174.771 416.354C173.331 413.236 169.012 407 163.252 407C157.492 407 154.133 411.077 153.173 413.116C151.133 411.677 145.181 409.23 137.694 410.957C130.206 412.684 129.534 416.953 130.134 418.872C122.455 415.754 105.08 411.389 97.0169 418.872C88.9535 426.355 84.7778 437.819 83.6979 442.616C79.9781 444.894 72.2507 450.962 71.0988 457.006C69.9722 462.917 72.8858 468.163 74.5859 470.186C73.1985 468.855 66.4552 470.487 65 476C63.3115 482.397 65.6992 489.384 74.6985 491.902C70.9788 492.142 63.3233 493.917 62.4594 499.098C61.3795 505.573 64 511.5 66.7791 514.207C65.8647 514.693 64.9476 514.998 64.0597 515.293C60.7531 516.393 57.8513 517.358 57 527C56.264 535.336 59.0667 537.897 62.2939 540.847C63.8022 542.225 65.4032 543.689 66.7791 545.866C63.8993 545.746 58.1397 554.744 58.1397 560.5C58.1397 566.256 64 575.366 74.6985 575.366C70.6188 576.685 69.1559 584.018 72 587.5C76.9012 593.5 80.0981 595.152 108.896 582.921C110.216 586.878 119.335 593.138 145.253 586.518C146.357 595.046 146.773 614.332 141.484 632.54H32.7757H0ZM597.228 563.161H579.398V589.014V614.867H597.228V563.161Z" fill="#173349"/>
</svg>
