<svg width="3841" height="747" viewBox="0 0 3841 747" fill="none" xmlns="http://www.w3.org/2000/svg">
<path fill-rule="evenodd" clip-rule="evenodd" d="M0 632.54V747H3840.71V632.54H3801.98V379.524H3769.2V286.149L3718.55 234.943H3664.92L3614.26 286.149V379.524H3575.53V632.54H3540.61V265.064H3445.26V213.859H3430.37V165.665H3394.61V111.447H3346.94V599.407H3293.3V361.451H3189.02V313.258H3171.14V361.451H3138.36V599.407H3081.75V250.004H2938.73V632.54H2894.04V487.96H2771.87V632.54H2706.32V361.451L2685.46 340.367V286.149L2649.71 250.004V165.665L2616.93 132.532L2584.16 165.665V250.004L2548.4 286.149V340.367L2527.54 361.451V632.54H2503.71V361.451H2479.87V286.149H2461.99V361.451H2330.89V632.54H2289.18V234.944H2250.44V186.75H2223.62V147.593H2187.87V0H2161.05V147.593H2131.26V186.75H2110.4V234.944H2077.62V632.54H2035.88H2013.71V555.688H2027.57L2013.71 521.958H1934.21L1920.36 555.688H1932.4V632.54H1882V500.727H1901.65L1870.66 431.936H1795.82L1766.34 500.727H1785.99V567.628V632.54H1740.32V599.372C1754.02 596.592 1764.33 584.484 1764.33 569.967C1764.33 553.396 1750.89 539.962 1734.32 539.962C1717.75 539.962 1704.32 553.396 1704.32 569.967C1704.32 585.526 1716.16 598.319 1731.32 599.825V632.54H1692.31V551.046C1707.58 548.862 1719.32 535.732 1719.32 519.859C1719.32 502.459 1705.21 488.354 1687.81 488.354C1670.41 488.354 1656.31 502.459 1656.31 519.859C1656.31 535.732 1668.04 548.862 1683.31 551.046V632.54H1635.64V495.676H1649.5L1635.64 461.947H1556.14L1542.29 495.676H1554.33V632.54H1524.49V538.224H1502.57V423.321H1512.39V405.934H1502.57L1468.55 344.925L1433.02 405.934H1420.92V423.321H1433.02V538.224H1409.59V632.54H1365.74V500.427H1388.42L1357.43 450.535V423.321H1228.16V450.535L1196.41 500.427H1218.33V632.54H1189.67H1138.96V538.224H1159.37L1080.75 431.636L1005.16 538.224H1024.81V632.54H942.175V599.372C955.871 596.592 966.179 584.484 966.179 569.967C966.179 553.396 952.745 539.962 936.173 539.962C919.602 539.962 906.168 553.396 906.168 569.967C906.168 585.526 918.01 598.319 933.173 599.825V632.54H876.162V569.508C894.856 566.622 909.169 550.462 909.169 530.96C909.169 509.417 891.704 491.953 870.161 491.953C848.618 491.953 831.154 509.417 831.154 530.96C831.154 551.493 847.02 568.321 867.161 569.853V632.54H813.151V602.523C823.423 600.438 831.154 591.356 831.154 580.469C831.154 568.04 821.079 557.965 808.65 557.965C796.221 557.965 786.146 568.04 786.146 580.469C786.146 591.356 793.877 600.438 804.149 602.523V632.54H771.143V432.275L733.373 390.737C725.722 382.323 712.443 382.47 704.979 391.051L669.124 432.275V632.54H633.204V563.161H642.119V550.681H606.46V541.766H617.158L536.926 459.751L506.616 488.278L476.306 461.534L396.073 541.766H406.771V632.54H378.07V601.473H385.571L357.066 566.967L333.062 601.473H340.563V632.54H300.056V554.506C318.75 551.619 333.062 535.46 333.062 515.957C333.062 494.414 315.598 476.95 294.055 476.95C272.511 476.95 255.047 494.414 255.047 515.957C255.047 536.491 270.913 553.319 291.054 554.851V632.54H261.048V596.522C271.32 594.437 279.052 585.355 279.052 574.468C279.052 562.039 268.976 551.964 256.548 551.964C244.119 551.964 234.043 562.039 234.043 574.468C234.043 585.355 241.775 594.437 252.047 596.522V632.54H209.869L162.111 315.708C171.003 313.883 179.617 310.877 187.723 306.764L152.363 237.065C154.532 235.901 156.502 234.413 158.207 232.666L213.274 288.342C220.806 280.893 227.13 272.315 232.018 262.916L162.453 226.734C163.654 224.363 164.473 221.767 164.829 219.025L242.602 229.49C244.014 218.991 243.781 208.336 241.91 197.909L164.676 211.766C164.259 209.366 163.486 207.087 162.412 204.988L231.833 168.537C226.909 159.158 220.551 150.604 212.991 143.184L158.143 199.072C156.419 197.319 154.428 195.83 152.236 194.67L187.172 124.763C177.696 120.027 167.539 116.798 157.068 115.193L145.249 192.267C143.878 192.024 142.467 191.897 141.026 191.897C139.943 191.897 138.877 191.969 137.833 192.108L125.588 115.286C115.127 116.953 104.989 120.242 95.5411 125.033L130.645 194.252C128.357 195.351 126.269 196.803 124.453 198.536L69.9881 143.451C62.4551 150.9 56.1298 159.477 51.2401 168.875L119.856 204.576C118.538 207.034 117.636 209.749 117.243 212.625L40.6473 202.33C39.2361 212.829 39.471 223.484 41.3434 233.911L117.415 220.25C117.874 222.762 118.725 225.138 119.902 227.312L51.4244 263.281C56.3506 272.659 62.7092 281.212 70.2711 288.631L124.523 233.333C126.358 235.071 128.468 236.522 130.779 237.615L96.0928 307.048C103.689 310.843 111.723 313.67 120.006 315.468L72.3257 632.54H32.7757H0ZM185.374 574.607L193.485 632.54H87.1999L96.0058 574.607H185.374ZM183.064 558.103L170.717 469.909L111.92 558.103H183.064ZM168.571 454.584L160.181 394.656L125.423 454.584H168.571ZM158.069 379.57L142.526 268.55L125.651 379.57H158.069ZM123.371 394.573L116.824 437.643L143.426 394.573H123.371ZM111.969 469.587L100.17 547.212L155.428 469.587H111.969ZM624.29 563.161H606.46V589.014V614.867H624.29V563.161Z" fill="#173349"/>
</svg>
